<?xml version="1.0" encoding="utf-8"?>
<!-- Generator: Adobe Illustrator 28.1.0, SVG Export Plug-In . SVG Version: 6.00 Build 0)  -->
<svg version="1.1" id="Capa_1" xmlns="http://www.w3.org/2000/svg" xmlns:xlink="http://www.w3.org/1999/xlink" x="0px" y="0px"
	 viewBox="0 0 512 512" style="enable-background:new 0 0 512 512;" xml:space="preserve">
<g id="XMLID_1005_">
	<path id="XMLID_1083_" d="M206.75,182.88c7.01,0,13.52-2.09,18.96-5.68c-3.16-15.8-17.11-27.7-33.83-27.7
		c-7.01,0-13.52,2.09-18.96,5.68C176.08,170.98,190.03,182.88,206.75,182.88z"/>
	<path id="XMLID_1099_" d="M339.08,155.18c-5.44-3.59-11.96-5.68-18.96-5.68c-16.73,0-30.67,11.9-33.83,27.7
		c5.44,3.59,11.96,5.68,18.96,5.68C321.97,182.88,335.92,170.98,339.08,155.18z"/>
	<path id="XMLID_1104_" d="M255.98,272c9.93,0,18.24-6.9,20.41-16.16c0.58-2.46-1.39-4.8-3.92-4.8H239.5c-2.62,0-4.5,2.48-3.87,5.03
		C237.88,265.21,246.14,272,255.98,272L255.98,272z"/>
	<path id="XMLID_1106_" d="M345,425.69h87v24h-87V425.69z"/>
	<path id="XMLID_1129_" d="M449.55,326.36l-117.61-30.2c-1.28-1.39-2.69-2.67-4.23-3.82c24.52-20.53,40.15-51.36,40.15-85.77v-2.1
		c14.45-15.27,23.34-35.85,23.34-58.48v-34.76c0-3.53-1.86-6.8-4.9-8.6c-3.04-1.8-6.8-1.87-9.9-0.17c-1.35,0.74-2.73,1.41-4.14,2.04
		C379.78,93.01,384,79.4,384,65.13V10c0-5.52-4.48-10-10-10H234.74c-56.53,0-102.71,45.13-104.42,101.25
		c-1.6,0.08-3.18,0.53-4.61,1.37c-3.04,1.8-4.9,5.07-4.9,8.6v34.76c0,22.63,8.89,43.21,23.34,58.48v2.1
		c0,34.41,15.63,65.24,40.15,85.78c-1.54,1.15-2.96,2.43-4.23,3.82l-117.61,30.2C25.68,335.8,0,368.91,0,406.87V502
		c0,5.52,4.48,10,10,10h492c5.52,0,10-4.48,10-10v-95.13C512,368.91,486.32,335.8,449.55,326.36L449.55,326.36z M192.1,316.76
		c0-5.49,3.69-8.22,5.27-9.13c0.96-0.56,2.89-1.45,5.32-1.45c1.57,0,3.35,0.37,5.22,1.45l29.28,16.91
		c-1.95,3.27-3.07,7.09-3.07,11.17s1.12,7.9,3.07,11.17l-29.28,16.9c-4.76,2.75-8.96,0.92-10.54,0c-1.59-0.92-5.27-3.64-5.27-9.13
		L192.1,316.76L192.1,316.76z M274.8,324.54l29.28-16.91c4.76-2.75,8.96-0.91,10.54,0c1.58,0.92,5.27,3.64,5.27,9.13v37.89
		c0,5.49-3.69,8.22-5.27,9.13c-1.58,0.91-5.79,2.75-10.54,0l-29.28-16.9c1.95-3.27,3.07-7.09,3.07-11.17
		C277.87,331.63,276.75,327.81,274.8,324.54L274.8,324.54z M234.74,20H364v45.13c0,18.38-9.69,35.25-25.43,44.55
		c-2.68-0.31-5.35-0.78-7.98-1.44c-25.07-6.27-51.92-2.96-74.59,9.01c-22.67-11.98-49.52-15.28-74.59-9.01
		c-10.21,2.55-21.01,2.46-31.15-0.1v-3.68C150.26,57.9,188.16,20,234.74,20L234.74,20z M140.81,126.32
		c14.59,4.62,30.27,5.13,45.45,1.34c21.87-5.47,45.4-1.95,64.56,9.65c3.18,1.93,7.18,1.93,10.36,0
		c19.16-11.6,42.69-15.12,64.56-9.65c15.18,3.8,30.86,3.28,45.45-1.34v19.67c0,35.94-29.24,65.18-65.18,65.18
		c-9.07,0-18.12-2.2-26.17-6.37l-19.24-9.96c-1.44-0.75-3.02-1.12-4.6-1.12s-3.15,0.37-4.6,1.12l-19.24,9.96
		c-8.05,4.17-17.1,6.37-26.17,6.37c-35.94,0-65.18-29.24-65.18-65.18L140.81,126.32L140.81,126.32z M165.25,220.76
		c12.11,6.62,25.99,10.4,40.75,10.4c12.25,0,24.48-2.98,35.37-8.61l14.64-7.58l14.64,7.58c10.88,5.63,23.11,8.61,35.36,8.61
		c14.75,0,28.64-3.77,40.75-10.4c-6.84,43.93-44.93,77.66-90.75,77.66S172.09,264.7,165.25,220.76z M492,492H20v-85.13
		c0-28.83,19.5-53.97,47.43-61.14l104.67-26.87v35.8c0,11.04,5.71,20.93,15.27,26.45c4.78,2.76,10.03,4.14,15.27,4.14
		c5.24,0,10.49-1.38,15.27-4.14L256,359.12l38.08,21.99c4.78,2.76,10.03,4.14,15.27,4.14s10.49-1.38,15.27-4.14
		c9.56-5.52,15.27-15.41,15.27-26.45v-35.8l104.67,26.87C472.5,352.9,492,378.04,492,406.87V492z"/>
</g>
</svg>
