<?xml version="1.0" encoding="UTF-8"?><svg id="Layer_1" xmlns="http://www.w3.org/2000/svg" viewBox="0 0 512 440.28"><defs><style>.cls-1{stroke-width:0px;}</style></defs><path class="cls-1" d="M505.4,370.54L295.39,22.24c-8.27-13.72-23.37-22.24-39.39-22.24s-31.12,8.52-39.39,22.25L6.6,370.54c-8.55,14.18-8.8,31.95-.66,46.37,8.15,14.42,23.49,23.38,40.05,23.38h420.03c16.56,0,31.91-8.96,40.05-23.38,8.14-14.42,7.89-32.19-.66-46.37ZM477.04,400.52c-2.24,3.97-6.47,6.44-11.03,6.44H45.99c-4.56,0-8.78-2.47-11.03-6.43-2.24-3.97-2.17-8.86.18-12.77L245.16,39.46c2.28-3.78,6.43-6.12,10.84-6.12s8.57,2.35,10.84,6.12l210.01,348.29c2.36,3.9,2.43,8.8.18,12.76Z"/><path class="cls-1" d="M256.15,137.15c-12.68,0-22.58,6.8-22.58,18.87,0,36.8,4.33,89.69,4.33,126.49,0,9.59,8.35,13.61,18.25,13.61,7.42,0,17.94-4.02,17.94-13.61,0-36.8,4.33-89.69,4.33-126.49,0-12.06-10.2-18.87-22.27-18.87Z"/><path class="cls-1" d="M256.47,317.45c-13.61,0-23.81,10.82-23.81,23.81s10.21,23.81,23.81,23.81c12.68,0,23.51-11.13,23.51-23.81s-10.83-23.81-23.51-23.81Z"/></svg>